# xmcd
#
# Track frame offsets:
#	150
#	17768
#	29056
#	36071
#	75366
#	85735
#	119975
#	128013
#	134209
#	143881
#	156402
#	161638
#	214185
#
# Disc length: 3305 seconds
#
# Revision: 1
# Processed by: cddbd v1.5.2PL0 Copyright (c) Steve Scherf et al.
# Submitted via: audiograbber 1.83.01
#
DISCID=bb0ce70d
DTITLE=Grateful Dead - 70-12-12 Santa Rosa Fairgrounds, Santa Rosa CA
DYEAR=1900
DGENRE=
TTITLE0=Dire Wolf
TTITLE1=Cryptical Envelopment
TTITLE2=Drums
TTITLE3=The Other One
TTITLE4=Not Fade Away
TTITLE5=GDTRFB
TTITLE6=Darkness Jam
TTITLE7=St Stephen Jam
TTITLE8=Not Fade Away
TTITLE9=Good Lovin'
TTITLE10=Drums
TTITLE11=Good Lovin'
TTITLE12=Uncle John's Band
EXTD=
EXTT0=
EXTT1=
EXTT2=
EXTT3=
EXTT4=
EXTT5=
EXTT6=
EXTT7=
EXTT8=
EXTT9=
EXTT10=
EXTT11=
EXTT12=
PLAYORDER=
